<svg width="140" height="33" viewBox="0 0 140 33" fill="none" xmlns="http://www.w3.org/2000/svg">
<path d="M19.6606 5.56836H16.9342V25.6274H19.6606V5.56836Z" fill="white"/>
<path d="M29.238 23.4728C26.6737 23.4728 24.8315 21.4349 24.8315 18.902C24.8315 16.4419 26.6589 14.4186 29.238 14.4186C31.7581 14.4186 33.556 16.4565 33.556 18.902C33.556 21.4349 31.7581 23.4728 29.238 23.4728ZM29.238 11.9294C25.1557 11.9294 22.0904 15.0591 22.0904 18.902C22.0904 22.8032 25.141 25.962 29.238 25.962C33.2613 25.962 36.2972 22.8032 36.2972 18.902C36.2972 15.0591 33.276 11.9294 29.238 11.9294Z" fill="white"/>
<path d="M45.273 23.4728C42.7087 23.4728 40.8665 21.4349 40.8665 18.902C40.8665 16.4419 42.694 14.4186 45.273 14.4186C47.7931 14.4186 49.5911 16.4565 49.5911 18.902C49.5911 21.4349 47.7931 23.4728 45.273 23.4728ZM45.273 11.9294C41.1908 11.9294 38.1254 15.0591 38.1254 18.902C38.1254 22.8032 41.176 25.962 45.273 25.962C49.2963 25.962 52.3323 22.8032 52.3323 18.902C52.3323 15.0591 49.3111 11.9294 45.273 11.9294Z" fill="white"/>
<path d="M0 18.9029C0 22.8041 3.06538 25.9629 7.14764 25.9629C8.81297 25.9629 10.2867 25.4243 11.4657 24.5218V25.4971C11.4657 28.6268 9.91827 29.7331 7.08869 29.7331L7.11817 32.2514C10.6257 32.2514 14.1774 31.0577 14.1774 24.8857V12.0467H11.5983L11.4804 13.3568C10.3014 12.4689 8.81297 11.9303 7.16238 11.9303C3.06538 11.9303 0 15.0599 0 18.9029ZM7.14764 23.4737C4.56859 23.4737 2.74116 21.4358 2.74116 18.9029C2.74116 16.4428 4.56859 14.4195 7.14764 14.4195C9.66774 14.4195 11.4657 16.4574 11.4657 18.9029C11.4657 21.4503 9.66774 23.4737 7.14764 23.4737Z" fill="white"/>
<path d="M59.1987 8.46694C58.511 8.46694 58.0158 7.97177 58.0158 7.28404C58.0158 6.59631 58.511 6.10114 59.1987 6.10114C59.8864 6.10114 60.3816 6.59631 60.3816 7.28404C60.3816 7.97177 59.8864 8.46694 59.1987 8.46694ZM60.1065 25H58.3184V11.9331H60.1065V25ZM63.8127 25V11.9331H65.6008V13.061C65.6008 13.5011 65.4633 13.6937 65.3533 13.8312L65.5733 13.9963C66.3711 12.5933 67.6915 11.6855 69.5897 11.6855C71.2953 11.6855 73.0558 12.5658 73.6886 14.4364C74.7614 12.2632 76.522 11.6855 78.1175 11.6855C80.7584 11.6855 82.9867 13.3911 82.9867 17.3524V25H81.1986V17.655C81.1986 15.4268 80.4833 13.3636 77.87 13.3636C75.4767 13.3636 74.2938 15.1517 74.2938 17.655V25H72.5057V17.545C72.5057 15.2617 71.6804 13.3636 69.1495 13.3636C66.8388 13.3636 65.6008 15.2342 65.6008 17.435V25H63.8127ZM86.5272 31.3546V11.9331H88.3153V13.5286C88.3153 13.8037 88.2328 14.0238 88.0677 14.2714L88.2878 14.4089C88.9755 13.3361 90.5436 11.6855 93.2945 11.6855C96.7882 11.6855 99.7317 14.464 99.7317 18.5078C99.7317 22.5242 96.7882 25.3576 93.2945 25.3576C90.5161 25.3576 89.003 23.7346 88.2878 22.6342L88.0677 22.7993C88.2328 22.9918 88.3153 23.2119 88.3153 23.5145V31.3546H86.5272ZM93.0469 23.7071C95.8253 23.7071 97.9436 21.5338 97.9436 18.5078C97.9436 15.5368 95.8804 13.3361 93.0469 13.3361C90.2135 13.3361 88.2053 15.6744 88.2053 18.5078C88.2053 21.3688 90.2135 23.7071 93.0469 23.7071ZM107.946 25.3576C104.424 25.3576 101.563 22.4141 101.563 18.5078C101.563 14.6015 104.479 11.6855 107.946 11.6855C110.779 11.6855 112.264 13.2811 112.98 14.3814L113.2 14.2439C113.035 14.0238 112.98 13.8037 112.98 13.5286V11.9331H114.768V25H112.98V23.5145C112.98 23.1844 113.062 22.9643 113.2 22.7718L112.98 22.6342C112.292 23.7071 110.779 25.3576 107.946 25.3576ZM108.193 23.7071C111.109 23.7071 113.09 21.3963 113.09 18.5078C113.09 15.6744 111.109 13.3361 108.193 13.3361C105.387 13.3361 103.324 15.6744 103.324 18.5078C103.324 21.4238 105.387 23.7071 108.193 23.7071ZM124.083 25.3576C120.396 25.3576 117.48 22.3591 117.48 18.5353C117.48 14.684 120.396 11.6855 124.083 11.6855C126.476 11.6855 128.567 12.8684 129.64 14.9041L128.209 15.7294C127.384 14.2439 125.843 13.3361 124.083 13.3361C121.332 13.3361 119.269 15.6469 119.269 18.5353C119.269 21.3138 121.249 23.7071 124.083 23.7071C125.953 23.7071 127.439 22.7442 128.237 21.2863L129.667 22.139C128.567 24.1197 126.531 25.3576 124.083 25.3576ZM133.26 25V13.9413C133.26 13.7487 133.287 13.6937 133.397 13.5837L133.205 13.4186C133.122 13.5286 133.012 13.5561 132.875 13.5561H130.371V11.9331H132.875C133.012 11.9331 133.122 11.9881 133.205 12.0982L133.397 11.9056C133.287 11.8231 133.26 11.7405 133.26 11.5755V7.55913H135.048V11.5755C135.048 11.7405 134.993 11.8231 134.91 11.9056L135.075 12.0982C135.185 11.9881 135.296 11.9331 135.406 11.9331H138.349V13.5561H135.406C135.296 13.5561 135.185 13.5286 135.075 13.4186L134.91 13.5837C134.993 13.6937 135.048 13.7487 135.048 13.9413V25H133.26Z" fill="#F6C414"/>
</svg>
