<svg width="140" height="33" viewBox="0 0 140 33" fill="none" xmlns="http://www.w3.org/2000/svg">
<path d="M19.6606 5.56836H16.9342V25.6274H19.6606V5.56836Z" fill="#171717"/>
<path d="M29.238 23.4728C26.6737 23.4728 24.8315 21.4349 24.8315 18.902C24.8315 16.4419 26.6589 14.4186 29.238 14.4186C31.7581 14.4186 33.556 16.4565 33.556 18.902C33.556 21.4349 31.7581 23.4728 29.238 23.4728ZM29.238 11.9294C25.1557 11.9294 22.0904 15.0591 22.0904 18.902C22.0904 22.8032 25.141 25.962 29.238 25.962C33.2613 25.962 36.2972 22.8032 36.2972 18.902C36.2972 15.0591 33.276 11.9294 29.238 11.9294Z" fill="#171717"/>
<path d="M45.273 23.4728C42.7087 23.4728 40.8665 21.4349 40.8665 18.902C40.8665 16.4419 42.694 14.4186 45.273 14.4186C47.7931 14.4186 49.5911 16.4565 49.5911 18.902C49.5911 21.4349 47.7931 23.4728 45.273 23.4728ZM45.273 11.9294C41.1908 11.9294 38.1254 15.0591 38.1254 18.902C38.1254 22.8032 41.176 25.962 45.273 25.962C49.2963 25.962 52.3323 22.8032 52.3323 18.902C52.3323 15.0591 49.3111 11.9294 45.273 11.9294Z" fill="#171717"/>
<path d="M0 18.9029C0 22.8041 3.06538 25.9629 7.14764 25.9629C8.81297 25.9629 10.2867 25.4243 11.4657 24.5218V25.4971C11.4657 28.6268 9.91827 29.7331 7.08869 29.7331L7.11817 32.2514C10.6257 32.2514 14.1774 31.0577 14.1774 24.8857V12.0467H11.5983L11.4804 13.3568C10.3014 12.4689 8.81297 11.9303 7.16238 11.9303C3.06538 11.9303 0 15.0599 0 18.9029ZM7.14764 23.4737C4.56859 23.4737 2.74116 21.4358 2.74116 18.9029C2.74116 16.4428 4.56859 14.4195 7.14764 14.4195C9.66774 14.4195 11.4657 16.4574 11.4657 18.9029C11.4657 21.4503 9.66774 23.4737 7.14764 23.4737Z" fill="#171717"/>
<path d="M59.1985 8.46694C58.5108 8.46694 58.0156 7.97177 58.0156 7.28404C58.0156 6.59631 58.5108 6.10114 59.1985 6.10114C59.8863 6.10114 60.3814 6.59631 60.3814 7.28404C60.3814 7.97177 59.8863 8.46694 59.1985 8.46694ZM60.1063 25H58.3182V11.9331H60.1063V25ZM63.8126 25V11.9331H65.6007V13.061C65.6007 13.5011 65.4631 13.6937 65.3531 13.8312L65.5731 13.9963C66.3709 12.5933 67.6914 11.6855 69.5895 11.6855C71.2951 11.6855 73.0557 12.5658 73.6884 14.4364C74.7612 12.2632 76.5218 11.6855 78.1174 11.6855C80.7583 11.6855 82.9865 13.3911 82.9865 17.3524V25H81.1984V17.655C81.1984 15.4268 80.4832 13.3636 77.8698 13.3636C75.4765 13.3636 74.2936 15.1517 74.2936 17.655V25H72.5055V17.545C72.5055 15.2617 71.6802 13.3636 69.1493 13.3636C66.8386 13.3636 65.6007 15.2342 65.6007 17.435V25H63.8126ZM86.527 31.3546V11.9331H88.3151V13.5286C88.3151 13.8037 88.2326 14.0238 88.0675 14.2714L88.2876 14.4089C88.9754 13.3361 90.5434 11.6855 93.2943 11.6855C96.788 11.6855 99.7315 14.464 99.7315 18.5078C99.7315 22.5242 96.788 25.3576 93.2943 25.3576C90.5159 25.3576 89.0029 23.7346 88.2876 22.6342L88.0675 22.7993C88.2326 22.9918 88.3151 23.2119 88.3151 23.5145V31.3546H86.527ZM93.0467 23.7071C95.8252 23.7071 97.9434 21.5338 97.9434 18.5078C97.9434 15.5368 95.8802 13.3361 93.0467 13.3361C90.2133 13.3361 88.2051 15.6744 88.2051 18.5078C88.2051 21.3688 90.2133 23.7071 93.0467 23.7071ZM107.945 25.3576C104.424 25.3576 101.563 22.4141 101.563 18.5078C101.563 14.6015 104.479 11.6855 107.945 11.6855C110.779 11.6855 112.264 13.2811 112.98 14.3814L113.2 14.2439C113.035 14.0238 112.98 13.8037 112.98 13.5286V11.9331H114.768V25H112.98V23.5145C112.98 23.1844 113.062 22.9643 113.2 22.7718L112.98 22.6342C112.292 23.7071 110.779 25.3576 107.945 25.3576ZM108.193 23.7071C111.109 23.7071 113.09 21.3963 113.09 18.5078C113.09 15.6744 111.109 13.3361 108.193 13.3361C105.387 13.3361 103.324 15.6744 103.324 18.5078C103.324 21.4238 105.387 23.7071 108.193 23.7071ZM124.083 25.3576C120.396 25.3576 117.48 22.3591 117.48 18.5353C117.48 14.684 120.396 11.6855 124.083 11.6855C126.476 11.6855 128.567 12.8684 129.639 14.9041L128.209 15.7294C127.384 14.2439 125.843 13.3361 124.083 13.3361C121.332 13.3361 119.268 15.6469 119.268 18.5353C119.268 21.3138 121.249 23.7071 124.083 23.7071C125.953 23.7071 127.439 22.7442 128.236 21.2863L129.667 22.139C128.567 24.1197 126.531 25.3576 124.083 25.3576ZM133.26 25V13.9413C133.26 13.7487 133.287 13.6937 133.397 13.5837L133.205 13.4186C133.122 13.5286 133.012 13.5561 132.875 13.5561H130.371V11.9331H132.875C133.012 11.9331 133.122 11.9881 133.205 12.0982L133.397 11.9056C133.287 11.8231 133.26 11.7405 133.26 11.5755V7.55913H135.048V11.5755C135.048 11.7405 134.993 11.8231 134.91 11.9056L135.075 12.0982C135.185 11.9881 135.295 11.9331 135.405 11.9331H138.349V13.5561H135.405C135.295 13.5561 135.185 13.5286 135.075 13.4186L134.91 13.5837C134.993 13.6937 135.048 13.7487 135.048 13.9413V25H133.26Z" fill="#8D8D8D"/>
</svg>
